<?xml version="1.0" encoding="iso-8859-1"?>
<!-- Generator: Adobe Illustrator 19.0.0, SVG Export Plug-In . SVG Version: 6.00 Build 0)  -->
<svg xmlns="http://www.w3.org/2000/svg" width="512" height="512" style="overflow: visible;" viewBox="0 0 512 512" data-svgdocument="" id="_i-fkcpXKWKVzLwAdVSok1" class="fl-svgdocument" x="0" y="0" xmlns:xlink="http://www.w3.org/1999/xlink">
	<defs id="_WpWbAqAbO31AvBE9ItnZX" transform="matrix(0.7822414614903856, 0, 0, 0.7822414614903856, -68.56925965516557, -25.625305490159263)" data-uid="o_eklh39907_6"></defs>
	<g id="_kesnAtJMxKwrEOf0cvLFQ" transform="matrix(0.8678485464496869, 0, 0, 0.8678485464496869, 38.53844413635564, 42.91577886609949)" data-uid="o_eklh39907_7">
		<path id="_oC-BriL1zHcPgp8kpL1Wt" fill="#00f7ff" transform="matrix(0.47417163848876953, 0, 0, 0.47417163848876953, 211.272705078125, 97.77191162109375)" data-type="polygon" d="M88.385 8L0.391 160.359L176.379 160.359Z" data-uid="o_eklh39907_8"></path>
		<path id="_zW1Edvj_F_rsUxRuqGA2T" fill="#8f14ba" transform="matrix(0.3394896686077118, 0, 0, 0.3394896686077118, 250.80055236816406, 113.63890075683594)" data-type="circle" data-cx="88.385" data-cy="88.385" data-r="88.385" d="M88.385,88.385m-88.385,0a88.385,88.385 0 1, 0 176.77,0a88.385,88.385 0 1, 0 -176.77,0" data-uid="o_eklh39907_9"></path>
		<path id="_J9_-1K48rTBjvQKoNj2Q-" fill="#178b8b" transform="matrix(0.07594848424196243, 0.10447133332490921, -0.5329050421714783, 0.38716840744018555, 299.0744934082031, 88.00672149658203)" data-type="rect" data-x="-0.013" data-y="0" data-width="176.769" data-height="176.769" d="M-0.013,0H176.756,V176.769,H-0.013,Z" data-uid="o_eklh39907_10"></path>
		<path id="_W41jg2Jc52pwRHIFyU9xd" d="m 0.9949671,289.9224 a 0.19841184,0.19844025 0 1 0 0,0.39684 l 0.6700888,0 c 0.142218,0 0.2670383,0.0908 0.3115363,0.22787 l 0.8901823,2.74275 -0.3916179,0.27438 c -0.1375571,0.0962 -0.2257674,0.24622 -0.2257754,0.43303 l 0,0.0268 c 0,0.28975 0.2393666,0.52862 0.5290454,0.52862 l 4.4286888,0 a 0.19841184,0.19844025 0 1 0 0,-0.39684 l -4.4286888,0 c -0.075402,0 -0.1322614,-0.0566 -0.1322614,-0.13178 l 0,-0.0268 c 2.7e-6,-0.0288 0.040676,-0.0971 0.056314,-0.10799 l 0.4706651,-0.32917 3.1546392,0 c 0.1996988,0 0.3779077,-0.13053 0.43915,-0.32036 l 0.6184249,-1.91806 c 0.094569,-0.29319 -0.1307615,-0.60561 -0.43915,-0.60561 l -3.8371288,0 a 0.19841184,0.19844025 0 1 0 0,0.39684 l 3.8371288,0 c 0.049029,0 0.077167,0.0387 0.061483,0.0873 l -0.1214132,0.37565 -3.2460847,0 a 0.13227455,0.1322935 0 1 0 0,0.26456 l 3.1608396,0 -0.1704955,0.52912 -2.4612988,0 a 0.13227452,0.13229346 0 1 0 0,0.26456 l 2.3760538,0 -0.1560287,0.48364 c -0.00915,0.0283 -0.033079,0.0455 -0.06148,0.0455 l -3.084374,0 -0.889148,-2.7386 C 2.2574386,290.12643 1.9783407,289.9224 1.6650559,289.9224 Z" fill="#ffffff" transform="matrix(25.746700286865234, 0, 0, 25.746700286865234, 133.15670776367188, -7377.72998046875)" data-uid="o_eklh39907_11" style="color: rgb(0, 0, 0); font-style: normal; font-variant-ligatures: normal; font-variant-caps: normal; font-weight: normal; font-stretch: normal; font-size: medium; line-height: normal; font-family: sans-serif; text-indent: 0px; text-align: start; text-decoration: none; letter-spacing: normal; word-spacing: normal; text-transform: none; direction: ltr; writing-mode: lr-tb; baseline-shift: baseline; text-anchor: start; white-space: normal; clip-rule: nonzero; display: inline; overflow: visible; visibility: visible; opacity: 1; isolation: auto; mix-blend-mode: normal; color-interpolation: srgb; color-interpolation-filters: linearrgb; fill-opacity: 1; fill-rule: evenodd; stroke: none; stroke-width: 1.5; stroke-linecap: round; stroke-linejoin: round; stroke-miterlimit: 4; stroke-dasharray: none; stroke-dashoffset: 0; stroke-opacity: 1; color-rendering: auto; image-rendering: auto; shape-rendering: auto; text-rendering: auto;"></path>
		<path id="_6vns8gGj36Mc1JTblDSt4" d="m 3.902886,295.28023 a 0.39678401,0.39684083 0 0 1 -0.396784,0.39684 0.39678401,0.39684083 0 0 1 -0.396784,-0.39684 0.39678401,0.39684083 0 0 1 0.396784,-0.39684 0.39678401,0.39684083 0 0 1 0.396784,0.39684 z" fill="#ffffff" transform="matrix(25.746700286865234, 0, 0, 25.746700286865234, 125.52315521240234, -7377.173828125)" data-uid="o_eklh39907_12" style="opacity: 1; fill-opacity: 1; stroke: none; stroke-width: 1; stroke-linecap: round; stroke-linejoin: round; stroke-miterlimit: 4; stroke-dasharray: none; stroke-opacity: 1;"></path>
		<path id="_cEGs1SaVupyUeqj7juxy4" d="m 6.5481127,295.28023 a 0.39678401,0.39684083 0 0 1 -0.396784,0.39684 0.39678401,0.39684083 0 0 1 -0.396784,-0.39684 0.39678401,0.39684083 0 0 1 0.396784,-0.39684 0.39678401,0.39684083 0 0 1 0.396784,0.39684 z" fill="#ffffff" transform="matrix(25.746700286865234, 0, 0, 25.746700286865234, 134.20962524414062, -7377.173828125)" data-uid="o_eklh39907_13" style="opacity: 1; fill-opacity: 1; stroke: none; stroke-width: 1; stroke-linecap: round; stroke-linejoin: round; stroke-miterlimit: 4; stroke-dasharray: none; stroke-opacity: 1;"></path>
	</g>
	<path text="DeTodo" text-anchor="middle" font-size="100" letter-spacing="0" side="left" offset="0.5" dx="0" dy="0" space="preserve" href="" font-family="Montserrat" font-scale="contain" transform="matrix(0.7661141804788214, 0, 0, 0.7661141804788214, 262.6321359554987, 305.17074629829455)" x="0" y="0" fill="#ffffff" font-weight="700" data-fl-textpath="" id="_hHNnCI4CF98oxWfZMEbYb" data-uid="o_eklh39907_14" d="M-188.1 0L-188.1-70L-156.3-70Q-144.9-70 -136.15-65.65Q-127.4-61.3 -122.55000000000001-53.4Q-117.7-45.5 -117.7-35L-117.7-35Q-117.7-24.5 -122.55000000000001-16.6Q-127.4-8.7 -136.15-4.35Q-144.9 0 -156.3 0L-156.3 0L-188.1 0ZM-171.9-13.3L-157.10000000000002-13.3Q-146.60000000000002-13.3 -140.35000000000002-19.15Q-134.10000000000002-25 -134.10000000000002-35L-134.10000000000002-35Q-134.10000000000002-45 -140.35000000000002-50.85Q-146.60000000000002-56.7 -157.10000000000002-56.7L-157.10000000000002-56.7L-171.9-56.7L-171.9-13.3ZM-53.899999999999984-26.7Q-53.899999999999984-26.4 -54.19999999999998-22.5L-54.19999999999998-22.5L-94.89999999999998-22.5Q-93.79999999999998-17.5 -89.69999999999999-14.6Q-85.59999999999998-11.7 -79.49999999999999-11.7L-79.49999999999999-11.7Q-75.29999999999998-11.7 -72.04999999999998-12.95Q-68.79999999999998-14.2 -65.99999999999999-16.9L-65.99999999999999-16.9L-57.69999999999998-7.9Q-65.29999999999998 0.8 -79.89999999999998 0.8L-79.89999999999998 0.8Q-88.99999999999999 0.8 -95.99999999999999-2.75Q-102.99999999999999-6.3 -106.79999999999998-12.6Q-110.59999999999998-18.9 -110.59999999999998-26.9L-110.59999999999998-26.9Q-110.59999999999998-34.8 -106.84999999999998-41.15Q-103.09999999999998-47.5 -96.54999999999998-51.05Q-89.99999999999999-54.6 -81.89999999999998-54.6L-81.89999999999998-54.6Q-73.99999999999999-54.6 -67.59999999999998-51.2Q-61.19999999999998-47.8 -57.54999999999998-41.45Q-53.899999999999984-35.1 -53.899999999999984-26.7L-53.899999999999984-26.7ZM-81.79999999999998-42.8Q-87.09999999999998-42.8 -90.69999999999999-39.8Q-94.29999999999998-36.8 -95.09999999999998-31.6L-95.09999999999998-31.6L-68.59999999999998-31.6Q-69.39999999999998-36.7 -72.99999999999999-39.75Q-76.59999999999998-42.8 -81.79999999999998-42.8L-81.79999999999998-42.8ZM-37.3 0L-37.3-56.8L-59.699999999999996-56.8L-59.699999999999996-70L 1.3000000000000043-70L 1.3000000000000043-56.8L-21.099999999999994-56.8L-21.099999999999994 0L-37.3 0ZM 29.000000000000007 0.8Q 20.50000000000001 0.8  13.75000000000001-2.75Q 7.000000000000011-6.3  3.20000000000001-12.6Q-0.5999999999999899-18.9 -0.5999999999999899-26.9L-0.5999999999999899-26.9Q-0.5999999999999899-34.9  3.20000000000001-41.2Q 7.000000000000011-47.5  13.75000000000001-51.05Q 20.50000000000001-54.6  29.000000000000007-54.6L 29.000000000000007-54.6Q 37.50000000000001-54.6  44.20000000000001-51.05Q 50.90000000000001-47.5  54.70000000000001-41.2Q 58.50000000000001-34.9  58.50000000000001-26.9L 58.50000000000001-26.9Q 58.50000000000001-18.9  54.70000000000001-12.6Q 50.90000000000001-6.3  44.20000000000001-2.75Q 37.50000000000001 0.8  29.000000000000007 0.8L 29.000000000000007 0.8ZM 29.000000000000007-12Q 35.00000000000001-12  38.85000000000001-16.05Q 42.70000000000001-20.1  42.70000000000001-26.9L 42.70000000000001-26.9Q 42.70000000000001-33.7  38.85000000000001-37.75Q 35.00000000000001-41.8  29.000000000000007-41.8L 29.000000000000007-41.8Q 23.00000000000001-41.8  19.10000000000001-37.75Q 15.20000000000001-33.7  15.20000000000001-26.9L 15.20000000000001-26.9Q 15.20000000000001-20.1  19.10000000000001-16.05Q 23.00000000000001-12  29.000000000000007-12L 29.000000000000007-12ZM 108.10000000000001-74.2L 123.70000000000002-74.2L 123.70000000000002 0L 108.80000000000001 0L 108.80000000000001-6.2Q 103 0.8  92.00000000000001 0.8L 92.00000000000001 0.8Q 84.4 0.8  78.25000000000001-2.6Q 72.10000000000001-6  68.60000000000001-12.3Q 65.10000000000001-18.6  65.10000000000001-26.9L 65.10000000000001-26.9Q 65.10000000000001-35.2  68.60000000000001-41.5Q 72.10000000000001-47.8  78.25000000000001-51.2Q 84.4-54.6  92.00000000000001-54.6L 92.00000000000001-54.6Q 102.30000000000001-54.6  108.10000000000001-48.1L 108.10000000000001-48.1L 108.10000000000001-74.2ZM 94.70000000000002-12Q 100.60000000000001-12  104.5-16.05Q 108.4-20.1  108.4-26.9L 108.4-26.9Q 108.4-33.7  104.5-37.75Q 100.60000000000001-41.8  94.70000000000002-41.8L 94.70000000000002-41.8Q 88.70000000000002-41.8  84.80000000000001-37.75Q 80.9-33.7  80.9-26.9L 80.9-26.9Q 80.9-20.1  84.80000000000001-16.05Q 88.70000000000002-12  94.70000000000002-12L 94.70000000000002-12ZM 163.7 0.8Q 155.20000000000002 0.8  148.45000000000002-2.75Q 141.70000000000002-6.3  137.9-12.6Q 134.1-18.9  134.1-26.9L 134.1-26.9Q 134.1-34.9  137.9-41.2Q 141.70000000000002-47.5  148.45000000000002-51.05Q 155.20000000000002-54.6  163.7-54.6L 163.7-54.6Q 172.2-54.6  178.9-51.05Q 185.60000000000002-47.5  189.4-41.2Q 193.2-34.9  193.2-26.9L 193.2-26.9Q 193.2-18.9  189.4-12.6Q 185.60000000000002-6.3  178.9-2.75Q 172.2 0.8  163.7 0.8L 163.7 0.8ZM 163.7-12Q 169.7-12  173.55-16.05Q 177.4-20.1  177.4-26.9L 177.4-26.9Q 177.4-33.7  173.55-37.75Q 169.7-41.8  163.7-41.8L 163.7-41.8Q 157.70000000000002-41.8  153.8-37.75Q 149.9-33.7  149.9-26.9L 149.9-26.9Q 149.9-20.1  153.8-16.05Q 157.70000000000002-12  163.7-12L 163.7-12Z"></path>
</svg>